<?xml version="1.0" standalone="no"?>
<!DOCTYPE svg PUBLIC "-//W3C//DTD SVG 1.1//EN" "http://www.w3.org/Graphics/SVG/1.1/DTD/svg11.dtd" >
<svg xmlns="http://www.w3.org/2000/svg">
<metadata></metadata>
<defs>
<font id="DINMediumRegular" horiz-adv-x="1092" >
<font-face units-per-em="2048" ascent="1638" descent="-410" />
<missing-glyph horiz-adv-x="492" />
<glyph horiz-adv-x="0" />
<glyph horiz-adv-x="0" />
<glyph unicode="&#xd;" horiz-adv-x="0" />
<glyph unicode=" "  horiz-adv-x="492" />
<glyph unicode="&#x09;" horiz-adv-x="492" />
<glyph unicode="&#xa0;" horiz-adv-x="492" />
<glyph unicode="!" horiz-adv-x="680" d="M248 1458h254l-45 -1024h-164zM260 0v223h229v-223h-229z" />
<glyph unicode="&#x22;" horiz-adv-x="909" d="M160 1067v391h207v-391h-207zM543 1067v391h207v-391h-207z" />
<glyph unicode="#" horiz-adv-x="1376" d="M139 426v192h193l41 254h-166v193h194l64 401h219l-63 -401h278l64 401h217l-64 -401h160v-193h-189l-40 -254h161v-192h-192l-68 -426h-217l68 426h-281l-65 -426h-220l68 426h-162zM549 618h280l39 254h-278z" />
<glyph unicode="$" horiz-adv-x="1245" d="M61 180l148 146q71 -71 152 -102.5t186 -37.5v455l-53 6q-171 23 -277 120t-106 275q0 241 195 356q95 56 222 68v185h168v-183q232 -14 391 -163l-141 -140q-104 98 -268 111v-442l70 -11q132 -21 185.5 -50t86.5 -58q119 -104 119 -299q0 -119 -55 -211 q-113 -186 -388 -211v-227h-168v221q-222 9 -366 108q-50 35 -101 84zM326 1053q0 -89 58 -140.5t163 -64.5v426q-105 -10 -163 -71t-58 -150zM678 190q114 12 178 69t64 153.5t-58 148.5q-35 32 -74 43t-110 21v-435z" />
<glyph unicode="%" horiz-adv-x="1724" d="M119 985v207q0 85 37.5 149t104 98t145.5 34q123 0 204.5 -76.5t81.5 -204.5v-207q0 -86 -38 -149q-79 -129 -248 -129q-170 0 -249 129q-38 63 -38 149zM276 991q0 -145 129.5 -145t129.5 145v195q0 147 -129.5 147t-129.5 -147v-195zM434 0l688 1458h166l-686 -1458 h-168zM1032 266v207q0 85 37.5 149t104 98t145.5 34t145.5 -34t104 -98t37.5 -149v-207q0 -128 -81.5 -204t-205.5 -76t-205.5 76t-81.5 204zM1190 272q0 -147 129 -147t129 147v195q0 147 -129 147t-129 -147v-195z" />
<glyph unicode="&#x26;" horiz-adv-x="1495" d="M139 422q0 172 138 296q58 52 151 116q-71 81 -111.5 153t-40.5 162.5t44 164t125 115t186 41.5t183 -42t121.5 -116.5t43.5 -166.5q0 -150 -156 -258q-2 0 -106 -74l307 -367q74 103 78 293h201q-9 -291 -146 -448l244 -291h-268l-119 143q-79 -66 -169 -110.5 t-235 -44.5q-223 0 -347 117t-124 317zM346 429.5q0 -111.5 75.5 -181.5t170 -70t162 26t135.5 87l-346 411q-60 -40 -103 -78q-94 -83 -94 -194.5zM489 1155q0 -52 26.5 -96.5t86.5 -114.5q4 2 31 20.5t39 26.5q106 73 106 143t-41 112t-106 42t-103.5 -40.5t-38.5 -92.5z " />
<glyph unicode="'" horiz-adv-x="526" d="M160 1067v391h207v-391h-207z" />
<glyph unicode="(" horiz-adv-x="649" d="M176 240v979q0 153 47 237q34 60 84.5 112t81.5 83l141 -142l-44 -44q-46 -44 -73.5 -96.5t-27.5 -162.5v-954q0 -110 23.5 -154t41.5 -66q23 -28 80 -83l-141 -142q-31 32 -65 67q-121 122 -139 236q-9 56 -9 130z" />
<glyph unicode=")" horiz-adv-x="649" d="M119 -49l31 31q58 58 85 110t27 160v954q0 108 -25.5 156.5t-51.5 77.5t-66 67l143 144q125 -125 159 -185.5t44 -116t10 -130.5v-979q0 -152 -44 -230t-169 -203z" />
<glyph unicode="*" horiz-adv-x="993" d="M125 954l235 125l-235 127l76 133l227 -141l-8 266h153l-8 -266l228 141l75 -133l-235 -127l235 -125l-75 -133l-228 142l8 -269h-153l8 269l-227 -142z" />
<glyph unicode="+" d="M104 461v194h345v342h194v-342h344v-194h-344v-344h-194v344h-345z" />
<glyph unicode="," horiz-adv-x="557" d="M160 238h237v-361l-237 -194v555z" />
<glyph unicode="-" horiz-adv-x="872" d="M137 471v195h598v-195h-598z" />
<glyph unicode="." horiz-adv-x="569" d="M160 0v250h250v-250h-250z" />
<glyph unicode="/" horiz-adv-x="778" d="M0 -152l584 1762h200l-583 -1762h-201z" />
<glyph unicode="0" d="M125 406v647q0 189 123 305q117 112 297 112q181 0 299 -112q123 -117 123 -305v-647q0 -127 -56 -221.5t-152.5 -145.5t-213.5 -51t-213 51t-151.5 146t-55.5 221zM334 412q0 -107 56.5 -172.5t155 -65.5t155.5 65.5t57 172.5v635q0 146 -100 207q-50 30 -113.5 30 t-112.5 -30q-98 -61 -98 -207v-635z" />
<glyph unicode="1" d="M233 981v231l285 246h209v-1458h-209v1231z" />
<glyph unicode="2" d="M129 0v186l561 682q78 96 78 195q0 138 -99 193q-49 28 -127.5 28t-140 -55t-61.5 -170h-209q0 185 120 299q118 112 304 112q125 0 220.5 -50t148.5 -143t53 -199.5t-31 -173t-106 -159.5l-457 -559h594v-186h-848z" />
<glyph unicode="3" d="M86 395h209q6 -110 73.5 -165.5t168 -55.5t167 64.5t66.5 177t-62 176t-182 63.5h-34v183h34q112 0 167 58t55 164t-60.5 165t-155 59t-152.5 -55.5t-67 -153.5h-209q12 185 130.5 291.5t297.5 106.5q124 0 220.5 -52t150 -144.5t53.5 -211.5q0 -222 -182 -311 q205 -92 205 -344q0 -135 -59.5 -231t-161.5 -144.5t-226 -48.5q-189 0 -314.5 103.5t-131.5 305.5z" />
<glyph unicode="4" d="M72 219v195l514 1044h225l-512 -1044h363v340h202v-340h156v-195h-156v-219h-202v219h-590z" />
<glyph unicode="5" d="M129 377h209q25 -203 213 -203q94 0 144 50t63.5 112.5t13.5 179.5t-48 197t-165 80q-84 0 -136 -36.5t-71 -94.5h-190v796h786v-186h-598v-385q81 84 245.5 84t258.5 -94q75 -74 101 -170t26 -224t-25 -219t-98 -164q-114 -114 -307 -114q-99 0 -179.5 31.5t-133.5 82.5 q-95 94 -109 277z" />
<glyph unicode="6" d="M115 424q0 108 37.5 200t70.5 158l332 676h223l-313 -627q53 23 144 23t178 -52.5t138.5 -149t51.5 -224t-54.5 -229t-152.5 -156.5t-223.5 -55t-224 53t-153 152t-54.5 231zM324 448q0 -96 28 -154q58 -120 193 -120q98 0 160.5 69.5t62.5 182t-60.5 183.5t-162 71 t-161.5 -68t-60 -164z" />
<glyph unicode="7" d="M129 1042v416h868v-186l-487 -1272h-225l489 1272h-444v-230h-201z" />
<glyph unicode="8" d="M96 408q0 225 201 346q-176 109 -176 313q0 180 123 293q119 110 301 110q181 0 302 -110q124 -112 124 -304.5t-176 -301.5q200 -123 200 -342q0 -128 -59.5 -225t-162.5 -148t-227 -51t-227.5 51t-163 148t-59.5 221zM305 416q0 -66 32 -122t88 -88t120 -32 q100 0 169.5 70.5t69.5 171.5t-69 172t-169.5 71t-170.5 -71t-70 -172zM330 1060.5q0 -96.5 60 -158.5t155.5 -62t156 61.5t60.5 158.5t-61 160.5t-155.5 63.5t-155 -63.5t-60.5 -160z" />
<glyph unicode="9" d="M115 1029.5q0 127.5 54.5 229t152.5 156.5t223 55t223.5 -52.5t153.5 -152t55 -208t-27.5 -190.5t-81.5 -191l-331 -676h-224l314 627q-53 -23 -145 -23t-179 52.5t-137.5 149t-50.5 224zM324 1033.5q0 -111.5 59.5 -183.5t160 -72t162.5 67.5t62 164t-28 154.5 q-58 120 -195 120q-100 0 -160.5 -69.5t-60.5 -181z" />
<glyph unicode=":" horiz-adv-x="621" d="M213 0v250h248v-250h-248zM213 584v250h248v-250h-248z" />
<glyph unicode=";" horiz-adv-x="621" d="M213 584v250h248v-250h-248zM217 238h238v-361l-238 -194v555z" />
<glyph unicode="&#x3c;" horiz-adv-x="2103" d="M106 567l803 803h269l-707 -702h1524v-199h-1524l707 -702h-269z" />
<glyph unicode="=" d="M104 272v195h883v-195h-883zM104 670v194h883v-194h-883z" />
<glyph unicode="&#x3e;" horiz-adv-x="2103" d="M106 469v199h1526l-706 702h268l803 -803l-803 -800h-268l706 702h-1526z" />
<glyph unicode="?" horiz-adv-x="1047" d="M145 1077q0 174 117 283q117 110 291 110q175 0 290 -105q55 -50 87.5 -124t32.5 -152t-25.5 -137.5t-73.5 -124.5l-157 -221q-37 -49 -37 -110v-62h-209v72q0 61 15 105.5t54 97.5l160 215q64 85 64 164t-56 137.5t-130.5 58.5t-120 -27.5t-69.5 -76t-24 -103.5h-209z M449 0v223h231v-223h-231z" />
<glyph unicode="@" horiz-adv-x="1507" d="M131 334v651q0 234 120.5 356.5t352.5 122.5h299q230 0 350 -121q123 -123 123 -358v-989l-196 4v102q-100 -116 -263 -116t-266 114q-55 64 -70 135q-22 105 -22 245.5t18 227t67 144.5q101 121 266.5 121t265.5 -115v125q0 145 -76 221t-217 76h-258q-140 0 -215 -76 q-45 -43 -60.5 -94t-15.5 -127v-639q0 -84 21 -130.5t81 -94.5l-143 -144q-66 55 -99 100q-63 88 -63 259zM760 506.5q0 -123.5 16 -192.5q36 -150 191 -150q119 0 164 82.5t45 206t-17 192.5q-37 152 -192 152q-120 0 -163.5 -83.5t-43.5 -207z" />
<glyph unicode="A" horiz-adv-x="1280" d="M16 0l535 1458h178l535 -1458h-236l-100 293h-576l-100 -293h-236zM418 481h448l-221 647z" />
<glyph unicode="B" horiz-adv-x="1358" d="M190 0v1458h568q132 0 232.5 -48.5t154 -139t53.5 -188.5t-28 -162q-54 -126 -169 -170q94 -36 157 -123t63 -217t-55.5 -222.5t-156 -140t-229.5 -47.5h-590zM412 199h348q151 0 211 107q28 50 28 116.5t-28 115.5q-60 105 -211 105h-348v-444zM412 842h327 q110 0 174 55t64 154q0 133 -113 185q-53 24 -125 24h-327v-418z" />
<glyph unicode="C" horiz-adv-x="1286" d="M137 709q0 153 3.5 231t15.5 143q26 133 113 221q164 166 381 166t355.5 -116t176.5 -332h-226q-26 115 -101.5 182.5t-192.5 67.5q-134 0 -216 -88q-54 -60 -68 -132q-20 -109 -20 -274t3.5 -231.5t13.5 -120.5q16 -85 71 -152q84 -88 216 -88q155 0 239 119 q40 57 57 131h224q-36 -214 -178 -334q-137 -114 -342 -114q-228 0 -383 155q-120 124 -135 321q-7 92 -7 245z" />
<glyph unicode="D" horiz-adv-x="1364" d="M190 0v1458h512q240 0 377 -137q118 -118 139 -311q9 -84 9 -197v-147q0 -118 -9 -206q-21 -205 -148.5 -332.5t-367.5 -127.5h-512zM412 199h268q159 0 248 98q52 57 65 155t13 255.5t-4 226.5q-9 155 -74 227q-90 99 -248 99h-268v-1061z" />
<glyph unicode="E" horiz-adv-x="1235" d="M190 0v1458h932v-198h-710v-426h606v-197h-606v-438h710v-199h-932z" />
<glyph unicode="F" horiz-adv-x="1198" d="M190 0v1458h932v-198h-710v-445h606v-199h-606v-616h-222z" />
<glyph unicode="G" horiz-adv-x="1329" d="M137 709q0 153 3.5 231t15.5 143q26 133 123 232q155 155 383 155q149 0 261.5 -59t179.5 -162t89 -231h-223q-37 162 -163 224q-62 30 -134 30q-142 0 -226 -90q-53 -59 -70.5 -146.5t-17.5 -255t3.5 -234t13.5 -120.5q16 -85 71 -152q84 -88 224 -88t221.5 94t81.5 238 v82h-311v188h532v-223q0 -142 -29.5 -238.5t-101.5 -172.5q-157 -166 -401 -166q-228 0 -383 155q-120 124 -135 321q-7 92 -7 245z" />
<glyph unicode="H" horiz-adv-x="1415" d="M190 0v1458h222v-622h592v622h221v-1458h-221v637h-592v-637h-222z" />
<glyph unicode="I" horiz-adv-x="602" d="M190 0v1458h222v-1458h-222z" />
<glyph unicode="J" horiz-adv-x="1036" d="M27 129l147 145q47 -45 90 -66.5t121 -21.5t137 34q123 68 123 257v981h221v-997q0 -148 -64.5 -254.5t-175.5 -162.5t-245 -56q-150 0 -251 60q-53 31 -103 81z" />
<glyph unicode="K" horiz-adv-x="1348" d="M190 0v1458h222v-733l596 733h270l-473 -571l522 -887h-260l-410 719l-245 -295v-424h-222z" />
<glyph unicode="L" horiz-adv-x="1176" d="M190 0v1458h222v-1259h702v-199h-924z" />
<glyph unicode="M" horiz-adv-x="1665" d="M190 0v1458h222l426 -907l417 907h222v-1458h-222v975l-335 -711h-164l-344 711v-975h-222z" />
<glyph unicode="N" horiz-adv-x="1479" d="M190 0v1458h203l674 -1024v1024h221v-1458h-203l-673 1026v-1026h-222z" />
<glyph unicode="O" horiz-adv-x="1323" d="M137 709q0 153 3.5 231t15.5 143q26 133 123 232q155 155 383 155t385 -155q119 -124 133 -321q6 -92 6 -265t-6 -265q-15 -197 -133 -321q-157 -155 -385 -155t-383 155q-120 124 -135 321q-7 92 -7 245zM358 780q0 -167 3.5 -236.5t13.5 -121.5t24 -81t49.5 -68t93 -63 t120.5 -24q132 0 217 90q36 39 54.5 89t25 136t6.5 266t-16.5 269t-62.5 138q-90 98 -224 98q-63 0 -121.5 -24.5t-104 -74.5t-62 -138t-16.5 -255z" />
<glyph unicode="P" horiz-adv-x="1288" d="M190 0v1458h553q212 0 342 -126q125 -122 125 -331q0 -112 -57 -212.5t-164 -158t-246 -57.5h-331v-573h-222zM412 774h319q118 0 188 64.5t70 178t-70.5 178.5t-187.5 65h-319v-486z" />
<glyph unicode="Q" horiz-adv-x="1323" d="M137 709q0 153 3.5 231t15.5 143q26 133 123 232q155 155 383 155t385 -155q119 -124 133 -321q6 -92 6 -255.5t-4 -246.5q-11 -184 -90 -293l143 -142l-123 -123l-145 146q-129 -92 -305 -92q-228 0 -383 155q-120 124 -135 321q-7 92 -7 245zM358 780 q0 -167 3.5 -236.5t13.5 -121.5t24 -81t49.5 -68t93 -63t130 -24t139.5 47l-154 154l123 123l142 -141q26 54 34.5 133.5t8.5 262t-16.5 271.5t-62.5 138q-90 98 -224 98q-63 0 -121.5 -24.5t-104 -74.5t-62 -138t-16.5 -255z" />
<glyph unicode="R" horiz-adv-x="1341" d="M190 0v1458h566q134 0 237.5 -54.5t159 -151t55.5 -233.5t-80.5 -237.5t-209.5 -136.5l335 -645h-258l-307 614h-276v-614h-222zM412 803h327q112 0 180 61t68 167t-67.5 167.5t-180.5 61.5h-327v-457z" />
<glyph unicode="S" horiz-adv-x="1208" d="M61 180l148 146q137 -140 373 -140q141 0 221 59t80 161.5t-58 154.5q-46 46 -159 62l-172 24q-178 25 -280.5 120.5t-102.5 274.5q0 127 59 224t169 150.5t258 53.5t255 -39.5t199 -125.5l-142 -140q-116 113 -317 113q-168 0 -234 -110q-32 -51 -32 -128 q0 -114 126 -166q44 -19 93 -26l166 -25q186 -28 272 -108q119 -104 119 -299q0 -198 -148 -314q-143 -114 -376 -114q-167 0 -290.5 44.5t-226.5 147.5z" />
<glyph unicode="T" horiz-adv-x="1147" d="M61 1260v198h1024v-198h-401v-1260h-221v1260h-402z" />
<glyph unicode="U" horiz-adv-x="1382" d="M168 492v966h221v-956q0 -197 142 -278q68 -38 159 -38q187 0 266 148q37 71 37 168v956h221v-966q0 -148 -68 -263t-187.5 -178t-268 -63t-267.5 63t-187 178t-68 263z" />
<glyph unicode="V" horiz-adv-x="1155" d="M10 1458h230l335 -1061l336 1061h234l-483 -1458h-173z" />
<glyph unicode="W" horiz-adv-x="1784" d="M23 1458h233l254 -1042l293 1042h178l293 -1042l254 1042h233l-381 -1458h-192l-297 1022l-295 -1022h-193z" />
<glyph unicode="X" horiz-adv-x="1184" d="M20 0l451 748l-422 710h254l287 -522l289 522h254l-422 -710l452 -748h-256l-317 559l-316 -559h-254z" />
<glyph unicode="Y" horiz-adv-x="1114" d="M10 1458h242l305 -641l305 641h242l-436 -858v-600h-222v600z" />
<glyph unicode="Z" horiz-adv-x="1130" d="M98 0v190l674 1070h-645v198h905v-180l-678 -1079h678v-199h-934z" />
<glyph unicode="[" horiz-adv-x="711" d="M176 -152v1762h447v-187h-238v-1388h238v-187h-447z" />
<glyph unicode="\" horiz-adv-x="778" d="M0 1593h201l577 -1745h-200z" />
<glyph unicode="]" horiz-adv-x="711" d="M88 33h242v1392h-242v185h447v-1762h-447v185z" />
<glyph unicode="^" horiz-adv-x="1169" d="M137 821l352 652h191l350 -652h-217l-229 424l-230 -424h-217z" />
<glyph unicode="_" horiz-adv-x="1169" d="M0 -209h1169v-143h-1169v143z" />
<glyph unicode="`" horiz-adv-x="1024" d="M233 1559h232l153 -332h-157z" />
<glyph unicode="a" horiz-adv-x="1085" d="M88 305q0 186 162 261q81 38 196 38h275v74q0 100 -54 147t-157 47t-151.5 -22t-92.5 -78l-137 129q71 84 156 117t217 33q428 0 428 -357v-694h-205v94q-57 -57 -119 -81.5t-156 -24.5q-186 0 -274 89.5t-88 227.5zM291 309q0 -147 190 -147q67 0 112 11.5t86.5 52 t41.5 149.5v84h-244q-91 0 -138.5 -39t-47.5 -111z" />
<glyph unicode="b" horiz-adv-x="1133" d="M166 0v1458h209v-524q99 117 272 117q247 0 327 -211q42 -114 42 -320q0 -207 -34.5 -299.5t-79.5 -137.5q-95 -95 -257 -95q-88 0 -152.5 27t-121.5 96v-111h-205zM375 520q0 -106 16 -180q36 -166 201 -166q128 0 171.5 91.5t43.5 226t-16 208.5q-35 164 -199 164 q-166 0 -201 -164q-16 -74 -16 -180z" />
<glyph unicode="c" horiz-adv-x="993" d="M113 498.5q0 162.5 38 264.5t103 166q124 122 321 122q110 0 190.5 -34t152.5 -112l-144 -139q-48 54 -92 76t-107 22q-122 0 -192 -92q-61 -77 -61 -252t65.5 -260.5t187.5 -85.5q61 0 106 22.5t93 75.5l144 -137q-96 -103 -212 -132q-59 -15 -156 -15t-202.5 54 t-170 174t-64.5 282.5z" />
<glyph unicode="d" horiz-adv-x="1133" d="M117 520q0 205 33.5 297t79.5 139q96 95 255 95q87 0 152.5 -26t120.5 -91v524h209v-1458h-205v111q-71 -88 -168 -111q-47 -12 -115.5 -12t-135 25t-113 70.5t-72.5 116.5q-41 114 -41 320zM326 520q0 -106 16 -180q36 -166 201 -166q128 0 171.5 91.5t43.5 226 t-16 208.5q-35 164 -199 164q-166 0 -201 -164q-16 -74 -16 -180z" />
<glyph unicode="e" horiz-adv-x="1104" d="M113 520q0 167 54.5 286t153.5 182t233.5 63t234.5 -63t152 -176.5t52 -260.5v-92h-674q0 -182 121 -255q58 -36 144 -36t139 24t113 82l133 -124q-85 -85 -172 -123.5t-202 -38.5t-200.5 29t-148.5 92q-133 133 -133 411zM319 604h467q-6 170 -106 237q-54 36 -126.5 36 t-127 -36t-74.5 -82t-24.5 -70.5t-8.5 -84.5z" />
<glyph unicode="f" horiz-adv-x="672" d="M80 860v160h119v160q0 170 127 248q64 40 157 40h131v-178h-92q-114 0 -114 -121v-149h206v-160h-206v-860h-209v860h-119z" />
<glyph unicode="g" horiz-adv-x="1124" d="M117 538.5q0 151.5 23.5 252.5t79.5 157q103 103 263 103q87 0 151.5 -27t121.5 -96v110h202v-1032q0 -128 -53.5 -226.5t-153.5 -155t-237 -56.5q-156 0 -258 58q-55 30 -109 79l134 133q54 -49 103.5 -70.5t121.5 -21.5q124 0 184 75t60 189v133q-100 -118 -269 -118 q-156 0 -248 92q-70 70 -93 170t-23 251.5zM326 539q0 -151 42 -238.5t170.5 -87.5t170 88t41.5 238t-41.5 237.5t-170 87.5t-170.5 -87t-42 -238z" />
<glyph unicode="h" horiz-adv-x="1159" d="M166 0v1458h209v-524q106 117 268 117q112 0 194 -47q167 -97 167 -334v-670h-209v637q0 114 -58 170.5t-151 56.5t-152 -57.5t-59 -169.5v-637h-209z" />
<glyph unicode="i" horiz-adv-x="541" d="M160 1243v221h221v-221h-221zM166 0v1038h209v-1038h-209z" />
<glyph unicode="j" horiz-adv-x="541" d="M-39 -246h92q61 0 87 29.5t26 91.5v1163h209v-1175q0 -126 -71.5 -206.5t-213.5 -80.5h-129v178zM160 1243v221h221v-221h-221z" />
<glyph unicode="k" horiz-adv-x="1122" d="M166 0v1458h209v-899l403 479h254l-360 -407l405 -631h-258l-291 479l-153 -174v-305h-209z" />
<glyph unicode="l" horiz-adv-x="637" d="M160 287v1171h209v-1159q0 -62 25 -91.5t87 -29.5h92v-178h-129q-141 0 -212.5 81.5t-71.5 205.5z" />
<glyph unicode="m" horiz-adv-x="1796" d="M166 0v1038h205v-104q107 117 289.5 117t281.5 -152q125 152 326 152q164 0 268 -100.5t104 -286.5v-664h-208v633q0 117 -58 174t-149.5 57t-154 -58t-62.5 -163v-643h-209v633q0 153 -102 207q-47 24 -124 24t-137.5 -58.5t-60.5 -172.5v-633h-209z" />
<glyph unicode="n" horiz-adv-x="1163" d="M166 0v1038h205v-104q107 117 271 117t265 -98t101 -289v-664h-209v633q0 153 -102 207q-47 24 -124 24t-137.5 -58.5t-60.5 -172.5v-633h-209z" />
<glyph unicode="o" horiz-adv-x="1100" d="M117 518.5q0 141.5 27 239.5q42 153 175 233q100 60 217 60q208 0 324 -123q70 -73 96.5 -169.5t26.5 -239.5t-26 -239t-97 -169q-118 -123 -310 -123t-310 123q-70 73 -96.5 169.5t-26.5 238zM326 520.5q0 -101.5 14 -171t66.5 -122.5t144 -53t151.5 62q44 44 58 113.5 t14 171t-14 171t-64.5 121t-145 51.5t-145.5 -51.5t-65 -121t-14 -171z" />
<glyph unicode="p" horiz-adv-x="1133" d="M166 -420v1458h205v-110q57 69 121.5 96t147.5 27q170 0 259 -93q91 -91 109 -264q8 -76 8 -174q0 -207 -34.5 -299.5t-79.5 -138.5q-95 -94 -261.5 -94t-265.5 118v-526h-209zM375 520q0 -106 16 -180q36 -166 201 -166q128 0 171.5 91.5t43.5 226t-16 208.5 q-35 164 -199 164q-166 0 -201 -164q-16 -74 -16 -180z" />
<glyph unicode="q" horiz-adv-x="1133" d="M117 520q0 205 33.5 297t79.5 138q96 96 257 96q89 0 153.5 -27t121.5 -96v110h205v-1458h-209v526q-99 -118 -273 -118q-156 0 -252 92q-89 89 -108 266q-8 76 -8 174zM326 520q0 -106 16 -180q36 -166 201 -166q128 0 171.5 91.5t43.5 226t-16 208.5q-35 164 -199 164 q-166 0 -201 -164q-16 -74 -16 -180z" />
<glyph unicode="r" horiz-adv-x="899" d="M166 0v1038h205v-112q41 57 115.5 91t156 34t140 -22.5t112.5 -76.5l-158 -157q-36 37 -69 53t-87.5 16t-102.5 -29q-103 -63 -103 -204v-631h-209z" />
<glyph unicode="s" horiz-adv-x="1022" d="M66 137l137 137q105 -108 299 -108q140 0 198 64q29 32 29 79q0 112 -139 123l-166 14q-307 28 -307 287q0 147 111.5 232.5t279.5 85.5q251 0 385 -117l-131 -133q-91 76 -256 76q-92 0 -140.5 -36t-48.5 -98q0 -105 144 -118l164 -15q202 -17 273 -139 q36 -63 36 -161.5t-55 -172.5q-111 -149 -377 -149q-191 0 -310 58q-65 32 -126 91z" />
<glyph unicode="t" horiz-adv-x="700" d="M72 860v160h118v315h209v-315h201v-160h-201v-561q0 -121 115 -121h86v-178h-125q-92 0 -157 40q-128 80 -128 249v571h-118z" />
<glyph unicode="u" horiz-adv-x="1163" d="M156 375v663h209v-632q0 -116 58 -174t151 -58t153.5 58.5t60.5 173.5v632h209v-1038h-204v104q-110 -116 -272 -116t-261 94q-104 102 -104 293z" />
<glyph unicode="v" horiz-adv-x="965" d="M16 1038h222l245 -731l244 731h221l-381 -1038h-170z" />
<glyph unicode="w" horiz-adv-x="1522" d="M16 1038h222l200 -731l242 731h162l239 -731l201 731h223l-323 -1038h-178l-244 725l-242 -725h-180z" />
<glyph unicode="x" horiz-adv-x="1030" d="M45 0l356 530l-342 508h252l205 -338l203 338h252l-340 -508l354 -530h-252l-217 354l-219 -354h-252z" />
<glyph unicode="y" horiz-adv-x="958" d="M16 1038h222l247 -731l242 731h223l-458 -1245q-30 -81 -76 -129q-77 -76 -213 -76h-84v189h53q65 0 96.5 23.5t53.5 86.5l57 162z" />
<glyph unicode="z" horiz-adv-x="961" d="M88 0v166l516 686h-487v186h745v-166l-520 -686h520v-186h-774z" />
<glyph unicode="{" horiz-adv-x="834" d="M92 637v184h76q59 0 97 38t38 124v342q0 285 293 285h145v-187h-79q-94 0 -122 -29.5t-28 -129.5v-330q0 -90 -36.5 -133.5t-98.5 -71.5q61 -26 98 -70t37 -135v-329q0 -101 28 -130.5t122 -29.5h79v-187h-145q-149 0 -219 70q-74 78 -74 215v342q0 86 -37 124t-98 38 h-76z" />
<glyph unicode="|" horiz-adv-x="692" d="M242 -152v1762h209v-1762h-209z" />
<glyph unicode="}" horiz-adv-x="834" d="M92 35h80q92 0 121 30t29 130v329q0 90 37.5 134.5t99.5 70.5q-64 29 -100.5 72.5t-36.5 132.5v330q0 99 -29 129t-121 30h-80v187h146q222 0 275 -158q17 -51 17 -127v-342q0 -84 39 -123t99 -39h73v-184h-73q-62 0 -100 -39t-38 -123v-342q0 -285 -292 -285h-146v187z " />
<glyph unicode="~" horiz-adv-x="1176" d="M88 571q117 117 200 145q45 15 102 15q92 0 226 -67q105 -50 158 -50t89 17.5t91 73.5l133 -132q-91 -91 -157 -125t-132 -34t-118.5 16.5t-136.5 58t-140 41.5t-91.5 -16.5t-92.5 -73.5z" />
<glyph unicode="&#xa1;" horiz-adv-x="680" d="M178 -420l45 1024h164l45 -1024h-254zM190 815v223h230v-223h-230z" />
<glyph unicode="&#xa2;" horiz-adv-x="1020" d="M113 750.5q0 148.5 47 260t132.5 177.5t194.5 84v186h164v-184q165 -19 289 -152l-139 -135q-74 84 -168 98v-671q91 13 168 98l139 -135q-121 -129 -289 -152v-225h-164v227q-233 38 -327 263q-47 112 -47 260.5zM322 748q0 -159 63 -250q49 -65 121 -80v663 q-69 -14 -111 -70.5t-57.5 -116.5t-15.5 -146z" />
<glyph unicode="&#xa3;" horiz-adv-x="1155" d="M88 641v160h127v196q0 148 64.5 254.5t176 162.5t236 56t208 -33t157.5 -108l-148 -145q-43 45 -87.5 66.5t-122.5 21.5t-137 -34q-124 -69 -124 -257v-180h264v-160h-264v-442h619v-199h-842v641h-127z" />
<glyph unicode="&#xa4;" horiz-adv-x="1362" d="M139 166l150 151q-78 115 -78 255t78 253l-150 150l137 137l150 -149q110 75 254 75t254 -75l151 149l138 -137l-152 -150q78 -113 78 -253t-78 -255l152 -151l-138 -137l-151 151q-115 -78 -254 -78t-254 78l-150 -151zM401 571q0 -114 82 -196t197 -82q75 0 139 37 t101.5 101.5t37.5 139.5t-37.5 139.5t-102 101t-138.5 36.5q-116 0 -197.5 -80.5t-81.5 -196.5z" />
<glyph unicode="&#xa5;" horiz-adv-x="1114" d="M10 1458h242l307 -643l303 643h240l-299 -594h178v-159h-260l-53 -105v-106h313v-160h-313v-334h-222v334h-313v160h313v106l-53 105h-260v159h178z" />
<glyph unicode="&#xa6;" horiz-adv-x="705" d="M242 -152v717h209v-717h-209zM242 893v717h209v-717h-209z" />
<glyph unicode="&#xa7;" horiz-adv-x="1112" d="M152 530q0 111 59.5 196t138.5 124q-83 41 -127.5 105t-44.5 165t45.5 179.5t132 124.5t203 46t203.5 -42q176 -86 182 -295h-201q-11 155 -184 155q-86 0 -133 -41t-47 -117q0 -119 153 -165l144 -43q291 -90 291 -381q0 -110 -59 -194t-140 -126q180 -79 180 -289 q0 -112 -53.5 -195t-142.5 -126t-195 -43q-163 0 -277 89t-120 259h205q6 -76 57 -119t136 -43t135 46t50 116q0 142 -159 190l-144 44q-288 87 -288 380zM356 536q0 -101 56.5 -161t146.5 -60t146.5 61t56.5 163t-60 159.5t-146.5 57.5t-143 -59.5t-56.5 -160.5z" />
<glyph unicode="&#xa8;" horiz-adv-x="1024" d="M197 1237v221h188v-221h-188zM639 1237v221h188v-221h-188z" />
<glyph unicode="&#xa9;" horiz-adv-x="1765" d="M141 729q0 149 58 286t160 238.5t238.5 159t285.5 57.5t286 -58t238 -159t159 -238t58 -286t-58 -286t-159 -238t-238 -159t-286 -58t-285.5 57.5t-238.5 159t-160 238.5t-58 286zM291 729q0 -165 79 -304t214.5 -218.5t297.5 -79.5t298 79t215.5 218.5t79.5 304.5 t-79.5 304.5t-215.5 218.5t-298 79t-297.5 -79.5t-214.5 -218.5t-79 -304zM528 714.5q0 108.5 27 185t74 128.5q99 111 266 111q84 0 144 -25.5t124 -81.5l-94 -96q-45 41 -84 56.5t-90 15.5q-111 0 -166 -75.5t-55 -203t55 -203t166 -75.5q51 0 89.5 15.5t84.5 55.5l94 -96 q-62 -56 -123 -81.5t-156.5 -25.5t-180 50t-130 143.5t-45.5 202z" />
<glyph unicode="&#xaa;" horiz-adv-x="926" d="M106 870q0 110 74.5 176t210.5 66h215v57q0 78 -42 115t-123 37t-117.5 -17t-73.5 -63l-113 107q57 67 124 92.5t175 25.5q340 0 340 -284v-553h-166v73q-45 -45 -94.5 -63t-122.5 -18q-144 0 -215.5 69.5t-71.5 179.5zM272 878.5q0 -114.5 146 -114.5q56 0 90 8t66 38 t32 118v65h-190q-144 0 -144 -114.5z" />
<glyph unicode="&#xab;" horiz-adv-x="1212" d="M76 557l471 469v-252l-219 -217l219 -219v-252zM594 557l471 469v-252l-221 -217l221 -219v-252z" />
<glyph unicode="&#xac;" d="M98 489v195h893v-483h-194v288h-699z" />
<glyph unicode="&#xad;" d="M104 471v195h883v-195h-883z" />
<glyph unicode="&#xae;" horiz-adv-x="1765" d="M141 729q0 149 58 286t160 238.5t238.5 159t285.5 57.5t286 -58t238 -159t159 -238t58 -286t-58 -286t-159 -238t-238 -159t-286 -58t-285.5 57.5t-238.5 159t-160 238.5t-58 286zM289 729q0 -166 79 -304.5t215 -219t299.5 -80.5t299.5 80.5t214.5 219.5t78.5 304 t-78.5 304t-214.5 219.5t-279.5 80.5t-251.5 -46t-190 -129q-172 -176 -172 -429zM625 330v800h301q74 0 133 -33.5t92 -90t33 -129.5t-43.5 -129t-114.5 -80l178 -338h-166l-164 317h-102v-317h-147zM772 764h135q58 0 94.5 34.5t36.5 86.5t-36.5 86.5t-94.5 34.5h-135 v-242z" />
<glyph unicode="&#xaf;" horiz-adv-x="1024" d="M195 1274v149h634v-149h-634z" />
<glyph unicode="&#xb0;" horiz-adv-x="965" d="M125 1124q0 95 48 179t130.5 132t178 48t178.5 -48.5t131.5 -131.5t48.5 -178.5t-48 -178t-132 -130.5t-168 -48t-147.5 27t-114.5 78q-105 105 -105 251zM297 1124.5q0 -79.5 53.5 -134t130.5 -54.5t132 54t55 134t-54.5 135.5t-132.5 55.5t-131 -55.5t-53 -135z" />
<glyph unicode="&#xb1;" d="M104 0v195h883v-195h-883zM104 647v195h345v344h194v-344h344v-195h-344v-346h-194v346h-345z" />
<glyph unicode="&#xb2;" horiz-adv-x="717" d="M92 584v141l330 381q45 53 45 105t-28.5 83t-77 31t-80 -27t-31.5 -86h-158q0 116 75 185t192 69t191.5 -68t74.5 -186q0 -58 -21 -98.5t-74 -101.5l-247 -287h342v-141h-533z" />
<glyph unicode="&#xb3;" horiz-adv-x="741" d="M92 831h158q1 -55 36.5 -85.5t87.5 -30.5t85 33t33 90t-32 91t-93 34h-23v135h23q56 0 85 31.5t29 83.5t-32 82t-79 30t-77 -28.5t-33 -77.5h-156q6 155 134 217q60 30 133 30q116 0 191 -69.5t75 -189t-102 -173.5q114 -60 114 -191.5t-78.5 -200.5t-197.5 -69 q-190 0 -256 141q-23 49 -25 117z" />
<glyph unicode="&#xb4;" horiz-adv-x="1024" d="M406 1227l153 332h232l-228 -332h-157z" />
<glyph unicode="&#xb5;" horiz-adv-x="1165" d="M156 -420v1458h209v-632q0 -115 59 -173.5t152 -58.5t152.5 58.5t59.5 173.5v632h209v-1038h-204v104q-108 -116 -275 -116q-94 0 -153 51v-459h-209z" />
<glyph unicode="&#xb6;" horiz-adv-x="1305" d="M78 1051q0 121 56.5 213t162 143t242.5 51h575v-1878h-209v1680h-221v-1680h-209v1069q-165 0 -281 120q-116 119 -116 282z" />
<glyph unicode="&#xb8;" horiz-adv-x="1024" d="M342 -432l143 301h168l-104 -301h-207z" />
<glyph unicode="&#xb9;" horiz-adv-x="567" d="M82 1126v179l178 153h158v-874h-158v698z" />
<glyph unicode="&#xba;" horiz-adv-x="938" d="M125 1044q0 152 31 220t67 104q94 98 247 98t247 -98q58 -59 78 -133t20 -170.5t-9 -154.5q-17 -119 -89 -191q-94 -98 -247 -98t-247 98q-72 72 -89 191q-9 58 -9 134zM295 1045q0 -82 10.5 -136.5t51 -95.5t113.5 -41t113.5 40.5t50 92.5t9.5 139.5t-9.5 139t-51 91.5 t-112.5 40t-112.5 -40.5t-52 -94t-10.5 -135.5z" />
<glyph unicode="&#xbb;" horiz-adv-x="1212" d="M147 86v252l222 219l-222 217v252l474 -469zM666 86v252l219 219l-219 217v252l473 -469z" />
<glyph unicode="&#xbc;" horiz-adv-x="1655" d="M82 1126v179l178 153h158v-874h-158v698zM369 0l686 1458h166l-686 -1458h-166zM983 125v145l301 604h170l-301 -604h186v170h152v-170h82v-145h-82v-125h-152v125h-356z" />
<glyph unicode="&#xbd;" horiz-adv-x="1694" d="M82 1126v179l178 153h158v-874h-158v698zM352 0l686 1458h166l-686 -1458h-166zM1071 0v141l328 381q45 53 45 105.5t-28.5 83t-78 30.5t-80 -26t-30.5 -86h-156q0 116 74.5 185t191 69t191 -69t74.5 -185q0 -58 -21 -99t-74 -102l-247 -287h342v-141h-531z" />
<glyph unicode="&#xbe;" horiz-adv-x="1729" d="M92 831h158q1 -55 36.5 -85.5t87.5 -30.5t85 33t33 90t-32 91t-93 34h-23v135h23q56 0 85 31.5t29 83.5t-32 82t-79 30t-77 -28.5t-33 -77.5h-156q6 155 134 217q60 30 133 30q116 0 191 -69.5t75 -189t-102 -173.5q114 -60 114 -191.5t-78.5 -200.5t-197.5 -69 q-190 0 -256 141q-23 49 -25 117zM455 0l686 1458h166l-686 -1458h-166zM1059 125v145l299 604h172l-301 -604h186v170h150v-170h82v-145h-82v-125h-150v125h-356z" />
<glyph unicode="&#xbf;" horiz-adv-x="1047" d="M84 -39q0 119 96 252l160 221q37 53 37 111v61h209v-74q0 -60 -16 -105t-56 -97l-158 -215q-63 -83 -63 -163t55.5 -138t130 -58t119.5 27q94 56 94 178h209q0 -112 -53.5 -202.5t-147.5 -140.5t-206.5 -50t-206.5 48t-148.5 137t-54.5 208zM367 815v223h229v-223h-229z " />
<glyph unicode="&#xc0;" horiz-adv-x="1280" d="M16 0l535 1458h178l535 -1458h-236l-100 293h-576l-100 -293h-236zM354 1932h232l153 -332h-157zM418 481h448l-221 647z" />
<glyph unicode="&#xc1;" horiz-adv-x="1280" d="M16 0l535 1458h178l535 -1458h-236l-100 293h-576l-100 -293h-236zM418 481h448l-221 647zM529 1600l153 332h232l-228 -332h-157z" />
<glyph unicode="&#xc2;" horiz-adv-x="1280" d="M16 0l535 1458h178l535 -1458h-236l-100 293h-576l-100 -293h-236zM283 1600l264 329h176l264 -329h-174l-178 198l-178 -198h-174zM418 481h448l-221 647z" />
<glyph unicode="&#xc3;" horiz-adv-x="1280" d="M16 0l535 1458h178l535 -1458h-236l-100 293h-576l-100 -293h-236zM281 1747q64 64 112 88.5t109 24.5t135 -44t127.5 -44t116.5 63l98 -96q-84 -84 -146 -104q-31 -9 -70 -9q-65 0 -140.5 43t-115.5 43t-64.5 -11t-63.5 -50zM418 481h448l-221 647z" />
<glyph unicode="&#xc4;" horiz-adv-x="1280" d="M16 0l535 1458h178l535 -1458h-236l-100 293h-576l-100 -293h-236zM320 1610v221h188v-221h-188zM418 481h448l-221 647zM762 1610v221h188v-221h-188z" />
<glyph unicode="&#xc5;" horiz-adv-x="1280" d="M16 0l535 1458h178l535 -1458h-236l-100 293h-576l-100 -293h-236zM379 1792q0 69 34.5 128t93.5 93.5t128 34.5t128 -34.5t93.5 -93.5t34.5 -128t-34.5 -128t-93.5 -93.5t-128 -34.5t-128 34.5t-93.5 93.5t-34.5 128zM418 481h448l-221 647zM504 1792.5 q0 -52.5 38.5 -91t93 -38.5t92.5 38t38 91.5t-37.5 91t-93 37.5t-93.5 -38t-38 -90.5z" />
<glyph unicode="&#xc6;" horiz-adv-x="1950" d="M10 0l766 1458h1061v-198h-711v-429h607v-198h-607v-434h711v-199h-932v332h-481l-172 -332h-242zM520 520h385v740z" />
<glyph unicode="&#xc7;" horiz-adv-x="1286" d="M137 709q0 153 3.5 231t15.5 143q26 133 113 221q164 166 381 166t355.5 -116t176.5 -332h-226q-26 115 -101.5 182.5t-192.5 67.5q-134 0 -216 -88q-54 -60 -68 -132q-20 -109 -20 -274t3.5 -231.5t13.5 -120.5q16 -85 71 -152q84 -88 216 -88q155 0 239 119 q40 57 57 131h224q-36 -214 -178 -334q-137 -114 -342 -114q-228 0 -383 155q-120 124 -135 321q-7 92 -7 245zM455 -432l143 301h168l-104 -301h-207z" />
<glyph unicode="&#xc8;" horiz-adv-x="1235" d="M190 0v1458h932v-198h-710v-426h606v-197h-606v-438h710v-199h-932zM358 1932h232l153 -332h-157z" />
<glyph unicode="&#xc9;" horiz-adv-x="1235" d="M190 0v1458h932v-198h-710v-426h606v-197h-606v-438h710v-199h-932zM531 1600l153 332h232l-228 -332h-157z" />
<glyph unicode="&#xca;" horiz-adv-x="1235" d="M190 0v1458h932v-198h-710v-426h606v-197h-606v-438h710v-199h-932zM285 1600l264 329h176l264 -329h-174l-178 198l-178 -198h-174z" />
<glyph unicode="&#xcb;" horiz-adv-x="1235" d="M190 0v1458h932v-198h-710v-426h606v-197h-606v-438h710v-199h-932zM322 1610v221h188v-221h-188zM764 1610v221h188v-221h-188z" />
<glyph unicode="&#xcc;" horiz-adv-x="602" d="M55 1932h232l153 -332h-157zM190 0v1458h222v-1458h-222z" />
<glyph unicode="&#xcd;" horiz-adv-x="602" d="M164 1600l153 332h232l-228 -332h-157zM190 0v1458h222v-1458h-222z" />
<glyph unicode="&#xce;" horiz-adv-x="602" d="M-61 1600l264 329h176l264 -329h-174l-178 198l-178 -198h-174zM190 0v1458h222v-1458h-222z" />
<glyph unicode="&#xcf;" horiz-adv-x="602" d="M-18 1610v221h188v-221h-188zM190 0v1458h222v-1458h-222zM424 1610v221h188v-221h-188z" />
<glyph unicode="&#xd0;" horiz-adv-x="1401" d="M78 651v170h151v637h512q262 0 412 -194q77 -100 97 -212q11 -62 12.5 -126.5t1.5 -219t-6 -236.5q-12 -167 -105 -277q-157 -193 -418 -193h-506v651h-151zM451 197h264q184 0 272 129q36 53 45.5 120t9.5 276.5t-11 283.5t-56 135q-89 121 -260 121h-264v-441h282v-170 h-282v-454z" />
<glyph unicode="&#xd1;" horiz-adv-x="1477" d="M190 0v1458h203l674 -1024v1024h221v-1458h-203l-673 1026v-1026h-222zM387 1747q64 64 112 88.5t109 24.5t135 -44t127.5 -44t116.5 63l98 -96q-84 -84 -146 -104q-31 -9 -70 -9q-65 0 -140.5 43t-115.5 43t-64.5 -11t-63.5 -50z" />
<glyph unicode="&#xd2;" horiz-adv-x="1325" d="M137 709q0 153 3.5 231t15.5 143q26 133 123 232q155 155 383 155t385 -155q119 -124 133 -321q6 -92 6 -265t-6 -265q-15 -197 -133 -321q-157 -155 -385 -155t-383 155q-120 124 -135 321q-7 92 -7 245zM358 780q0 -167 3.5 -236.5t13.5 -121.5t24 -81t49.5 -68t93 -63 t120.5 -24q132 0 217 90q36 39 54.5 89t25 136t6.5 266t-16.5 269t-62.5 138q-90 98 -224 98q-63 0 -121.5 -24.5t-104 -74.5t-62 -138t-16.5 -255zM383 1932h232l153 -332h-157z" />
<glyph unicode="&#xd3;" horiz-adv-x="1325" d="M137 709q0 153 3.5 231t15.5 143q26 133 123 232q155 155 383 155t385 -155q119 -124 133 -321q6 -92 6 -265t-6 -265q-15 -197 -133 -321q-157 -155 -385 -155t-383 155q-120 124 -135 321q-7 92 -7 245zM358 780q0 -167 3.5 -236.5t13.5 -121.5t24 -81t49.5 -68t93 -63 t120.5 -24q132 0 217 90q36 39 54.5 89t25 136t6.5 266t-16.5 269t-62.5 138q-90 98 -224 98q-63 0 -121.5 -24.5t-104 -74.5t-62 -138t-16.5 -255zM556 1600l153 332h232l-228 -332h-157z" />
<glyph unicode="&#xd4;" horiz-adv-x="1325" d="M137 709q0 153 3.5 231t15.5 143q26 133 123 232q155 155 383 155t385 -155q119 -124 133 -321q6 -92 6 -265t-6 -265q-15 -197 -133 -321q-157 -155 -385 -155t-383 155q-120 124 -135 321q-7 92 -7 245zM310 1600l264 329h176l264 -329h-174l-178 198l-178 -198h-174z M358 780q0 -167 3.5 -236.5t13.5 -121.5t24 -81t49.5 -68t93 -63t120.5 -24q132 0 217 90q36 39 54.5 89t25 136t6.5 266t-16.5 269t-62.5 138q-90 98 -224 98q-63 0 -121.5 -24.5t-104 -74.5t-62 -138t-16.5 -255z" />
<glyph unicode="&#xd5;" horiz-adv-x="1325" d="M137 709q0 153 3.5 231t15.5 143q26 133 123 232q155 155 383 155t385 -155q119 -124 133 -321q6 -92 6 -265t-6 -265q-15 -197 -133 -321q-157 -155 -385 -155t-383 155q-120 124 -135 321q-7 92 -7 245zM310 1747q64 64 112 88.5t109 24.5t135 -44t127.5 -44t116.5 63 l98 -96q-84 -84 -146 -104q-31 -9 -70 -9q-65 0 -140.5 43t-115.5 43t-64.5 -11t-63.5 -50zM358 780q0 -167 3.5 -236.5t13.5 -121.5t24 -81t49.5 -68t93 -63t120.5 -24q132 0 217 90q36 39 54.5 89t25 136t6.5 266t-16.5 269t-62.5 138q-90 98 -224 98q-63 0 -121.5 -24.5 t-104 -74.5t-62 -138t-16.5 -255z" />
<glyph unicode="&#xd6;" horiz-adv-x="1325" d="M137 709q0 153 3.5 231t15.5 143q26 133 123 232q155 155 383 155t385 -155q119 -124 133 -321q6 -92 6 -265t-6 -265q-15 -197 -133 -321q-157 -155 -385 -155t-383 155q-120 124 -135 321q-7 92 -7 245zM347 1610v221h188v-221h-188zM358 780q0 -167 3.5 -236.5 t13.5 -121.5t24 -81t49.5 -68t93 -63t120.5 -24q132 0 217 90q36 39 54.5 89t25 136t6.5 266t-16.5 269t-62.5 138q-90 98 -224 98q-63 0 -121.5 -24.5t-104 -74.5t-62 -138t-16.5 -255zM789 1610v221h188v-221h-188z" />
<glyph unicode="&#xd7;" d="M117 270l299 299l-299 299l131 131l297 -299l299 299l131 -131l-299 -299l299 -299l-131 -129l-299 297l-297 -297z" />
<glyph unicode="&#xd8;" horiz-adv-x="1335" d="M137 709q0 153 3.5 231t15.5 143q26 133 123 232q155 155 383 155q133 0 245 -55l62 133h170l-107 -221q131 -105 148 -333q6 -92 6 -265t-6 -265q-15 -197 -133 -321q-157 -155 -385 -155q-132 0 -244 55l-64 -133h-168l105 221q-79 79 -109.5 159.5t-37.5 173t-7 245.5 zM360 754.5q0 -192.5 9 -278.5t32 -136l424 887q-76 45 -151 45q-144 0 -228 -90q-53 -59 -69.5 -147t-16.5 -280.5zM500 231q72 -45 162 -45q132 0 217 90q36 39 55 89q31 85 31 378t-41 375z" />
<glyph unicode="&#xd9;" horiz-adv-x="1382" d="M168 492v966h221v-956q0 -197 142 -278q68 -38 159 -38q187 0 266 148q37 71 37 168v956h221v-966q0 -148 -68 -263t-187.5 -178t-268 -63t-267.5 63t-187 178t-68 263zM413 1932h232l153 -332h-157z" />
<glyph unicode="&#xda;" horiz-adv-x="1382" d="M168 492v966h221v-956q0 -197 142 -278q68 -38 159 -38q187 0 266 148q37 71 37 168v956h221v-966q0 -148 -68 -263t-187.5 -178t-268 -63t-267.5 63t-187 178t-68 263zM586 1600l153 332h232l-228 -332h-157z" />
<glyph unicode="&#xdb;" horiz-adv-x="1382" d="M168 492v966h221v-956q0 -197 142 -278q68 -38 159 -38q187 0 266 148q37 71 37 168v956h221v-966q0 -148 -68 -263t-187.5 -178t-268 -63t-267.5 63t-187 178t-68 263zM340 1600l264 329h176l264 -329h-174l-178 198l-178 -198h-174z" />
<glyph unicode="&#xdc;" horiz-adv-x="1382" d="M168 492v966h221v-956q0 -197 142 -278q68 -38 159 -38q187 0 266 148q37 71 37 168v956h221v-966q0 -148 -68 -263t-187.5 -178t-268 -63t-267.5 63t-187 178t-68 263zM377 1610v221h188v-221h-188zM819 1610v221h188v-221h-188z" />
<glyph unicode="&#xdd;" horiz-adv-x="1114" d="M10 1458h242l305 -641l305 641h242l-436 -858v-600h-222v600zM451 1600l153 332h232l-228 -332h-157z" />
<glyph unicode="&#xde;" horiz-adv-x="1305" d="M190 0v1458h222v-280h331q212 0 341 -126q126 -122 126 -317q0 -194 -126 -315q-131 -125 -341 -125h-331v-295h-222zM412 494h317q118 0 188 64t70 177.5t-70 178.5t-188 65h-317v-485z" />
<glyph unicode="&#xdf;" horiz-adv-x="1157" d="M166 0v1069q0 131 55 223q109 181 383 181q259 0 366 -155q54 -79 54 -196q0 -156 -127 -237q67 -34 98 -87t31 -149v-338q0 -153 -85 -232t-232 -79h-109v178h66q65 0 107 34.5t42 117.5v319q0 75 -38 111.5t-105 36.5h-72v166h64q67 0 109 40t42 114t-51.5 122.5 t-165.5 48.5q-221 0 -221 -231v-1057h-211z" />
<glyph unicode="&#xe0;" horiz-adv-x="1085" d="M88 305q0 186 162 261q81 38 196 38h275v74q0 100 -54 147t-157 47t-151.5 -22t-92.5 -78l-137 129q71 84 156 117t217 33q428 0 428 -357v-694h-205v94q-57 -57 -119 -81.5t-156 -24.5q-186 0 -274 89.5t-88 227.5zM247 1559h232l153 -332h-157zM291 309 q0 -147 190 -147q67 0 112 11.5t86.5 52t41.5 149.5v84h-244q-91 0 -138.5 -39t-47.5 -111z" />
<glyph unicode="&#xe1;" horiz-adv-x="1085" d="M88 305q0 186 162 261q81 38 196 38h275v74q0 100 -54 147t-157 47t-151.5 -22t-92.5 -78l-137 129q71 84 156 117t217 33q428 0 428 -357v-694h-205v94q-57 -57 -119 -81.5t-156 -24.5q-186 0 -274 89.5t-88 227.5zM291 309q0 -147 190 -147q67 0 112 11.5t86.5 52 t41.5 149.5v84h-244q-91 0 -138.5 -39t-47.5 -111zM420 1227l153 332h232l-228 -332h-157z" />
<glyph unicode="&#xe2;" horiz-adv-x="1085" d="M88 305q0 186 162 261q81 38 196 38h275v74q0 100 -54 147t-157 47t-151.5 -22t-92.5 -78l-137 129q71 84 156 117t217 33q428 0 428 -357v-694h-205v94q-57 -57 -119 -81.5t-156 -24.5q-186 0 -274 89.5t-88 227.5zM174 1227l264 329h176l264 -329h-174l-178 198 l-178 -198h-174zM291 309q0 -147 190 -147q67 0 112 11.5t86.5 52t41.5 149.5v84h-244q-91 0 -138.5 -39t-47.5 -111z" />
<glyph unicode="&#xe3;" horiz-adv-x="1085" d="M88 305q0 186 162 261q81 38 196 38h275v74q0 100 -54 147t-157 47t-151.5 -22t-92.5 -78l-137 129q71 84 156 117t217 33q428 0 428 -357v-694h-205v94q-57 -57 -119 -81.5t-156 -24.5q-186 0 -274 89.5t-88 227.5zM174 1374q64 64 112 88.5t109 24.5t135 -44t127.5 -44 t116.5 63l98 -96q-84 -84 -146 -104q-31 -9 -70 -9q-65 0 -140.5 43t-115.5 43t-64.5 -11t-63.5 -50zM291 309q0 -147 190 -147q67 0 112 11.5t86.5 52t41.5 149.5v84h-244q-91 0 -138.5 -39t-47.5 -111z" />
<glyph unicode="&#xe4;" horiz-adv-x="1085" d="M88 305q0 186 162 261q81 38 196 38h275v74q0 100 -54 147t-157 47t-151.5 -22t-92.5 -78l-137 129q71 84 156 117t217 33q428 0 428 -357v-694h-205v94q-57 -57 -119 -81.5t-156 -24.5q-186 0 -274 89.5t-88 227.5zM211 1237v221h188v-221h-188zM291 309 q0 -147 190 -147q67 0 112 11.5t86.5 52t41.5 149.5v84h-244q-91 0 -138.5 -39t-47.5 -111zM653 1237v221h188v-221h-188z" />
<glyph unicode="&#xe5;" horiz-adv-x="1085" d="M88 305q0 186 162 261q81 38 196 38h275v74q0 100 -54 147t-157 47t-151.5 -22t-92.5 -78l-137 129q71 84 156 117t217 33q428 0 428 -357v-694h-205v94q-57 -57 -119 -81.5t-156 -24.5q-186 0 -274 89.5t-88 227.5zM270 1436q0 69 34.5 128t93.5 93.5t128 34.5 t128 -34.5t93.5 -93.5t34.5 -128t-34.5 -128t-93.5 -93.5t-128 -34.5t-128 34.5t-93.5 93.5t-34.5 128zM291 309q0 -147 190 -147q67 0 112 11.5t86.5 52t41.5 149.5v84h-244q-91 0 -138.5 -39t-47.5 -111zM395 1436.5q0 -52.5 38.5 -91t93 -38.5t92.5 38t38 91.5t-37.5 91 t-93 37.5t-93.5 -38t-38 -90.5z" />
<glyph unicode="&#xe6;" horiz-adv-x="1714" d="M88 305q0 186 162 261q81 38 196 38h275v74q0 100 -54 147t-157 47t-151.5 -22t-92.5 -78l-137 129q71 84 156 117t217 33q259 0 352 -138q112 138 307 138q135 0 236 -63t153 -176.5t52 -260.5v-92h-674q0 -136 68 -213.5t196 -77.5q86 0 139 24t113 82l133 -124 q-85 -85 -172 -123.5t-217 -38.5q-247 0 -367 162q-99 -121 -225 -148q-65 -14 -154 -14q-178 0 -266 89.5t-88 227.5zM291 309q0 -147 190 -147q67 0 112 11.5t86.5 52t41.5 149.5v84h-244q-91 0 -138.5 -39t-47.5 -111zM928 604h467q-3 87 -27.5 144t-78.5 93t-127 36 q-148 0 -206 -132q-24 -54 -28 -141z" />
<glyph unicode="&#xe7;" horiz-adv-x="999" d="M113 498.5q0 162.5 38 264.5t103 166q124 122 321 122q110 0 190.5 -34t152.5 -112l-144 -139q-48 54 -92 76t-107 22q-122 0 -192 -92q-61 -77 -61 -252t65.5 -260.5t187.5 -85.5q61 0 106 22.5t93 75.5l144 -137q-96 -103 -212 -132q-59 -15 -156 -15t-202.5 54 t-170 174t-64.5 282.5zM342 -432l143 301h168l-104 -301h-207z" />
<glyph unicode="&#xe8;" horiz-adv-x="1104" d="M113 520q0 167 54.5 286t153.5 182t233.5 63t234.5 -63t152 -176.5t52 -260.5v-92h-674q0 -182 121 -255q58 -36 144 -36t139 24t113 82l133 -124q-85 -85 -172 -123.5t-202 -38.5t-200.5 29t-148.5 92q-133 133 -133 411zM280 1559h232l153 -332h-157zM319 604h467 q-6 170 -106 237q-54 36 -126.5 36t-127 -36t-74.5 -82t-24.5 -70.5t-8.5 -84.5z" />
<glyph unicode="&#xe9;" horiz-adv-x="1104" d="M113 520q0 167 54.5 286t153.5 182t233.5 63t234.5 -63t152 -176.5t52 -260.5v-92h-674q0 -182 121 -255q58 -36 144 -36t139 24t113 82l133 -124q-85 -85 -172 -123.5t-202 -38.5t-200.5 29t-148.5 92q-133 133 -133 411zM319 604h467q-6 170 -106 237q-54 36 -126.5 36 t-127 -36t-74.5 -82t-24.5 -70.5t-8.5 -84.5zM453 1227l153 332h232l-228 -332h-157z" />
<glyph unicode="&#xea;" horiz-adv-x="1104" d="M113 520q0 167 54.5 286t153.5 182t233.5 63t234.5 -63t152 -176.5t52 -260.5v-92h-674q0 -182 121 -255q58 -36 144 -36t139 24t113 82l133 -124q-85 -85 -172 -123.5t-202 -38.5t-200.5 29t-148.5 92q-133 133 -133 411zM207 1227l264 329h176l264 -329h-174l-178 198 l-178 -198h-174zM319 604h467q-6 170 -106 237q-54 36 -126.5 36t-127 -36t-74.5 -82t-24.5 -70.5t-8.5 -84.5z" />
<glyph unicode="&#xeb;" horiz-adv-x="1104" d="M113 520q0 167 54.5 286t153.5 182t233.5 63t234.5 -63t152 -176.5t52 -260.5v-92h-674q0 -182 121 -255q58 -36 144 -36t139 24t113 82l133 -124q-85 -85 -172 -123.5t-202 -38.5t-200.5 29t-148.5 92q-133 133 -133 411zM244 1237v221h188v-221h-188zM319 604h467 q-6 170 -106 237q-54 36 -126.5 36t-127 -36t-74.5 -82t-24.5 -70.5t-8.5 -84.5zM686 1237v221h188v-221h-188z" />
<glyph unicode="&#xec;" horiz-adv-x="541" d="M30 1559h232l153 -332h-157zM166 0v1038h209v-1038h-209z" />
<glyph unicode="&#xed;" horiz-adv-x="541" d="M136 1227l153 332h232l-228 -332h-157zM166 0v1038h209v-1038h-209z" />
<glyph unicode="&#xee;" horiz-adv-x="541" d="M-86 1227l264 329h176l264 -329h-174l-178 198l-178 -198h-174zM166 0v1038h209v-1038h-209z" />
<glyph unicode="&#xef;" horiz-adv-x="541" d="M-49 1237v221h188v-221h-188zM166 0v1038h209v-1038h-209zM393 1237v221h188v-221h-188z" />
<glyph unicode="&#xf0;" horiz-adv-x="1100" d="M125 531.5q0 116.5 25 212t99 172.5t210 100q33 6 72.5 6t82.5 -10l-92 166h-237v147h159l-79 143h221l80 -143h178v-147h-103l105 -193q100 -184 118 -310q11 -71 11 -187q0 -256 -121 -379q-114 -121 -305 -121t-303 121q-90 90 -111 237q-10 69 -10 185.5zM334 527.5 q0 -78.5 4 -127.5q11 -113 67.5 -169.5t145 -56.5t147.5 59q53 53 64 167q4 49 4 109.5t-4 110.5q-11 113 -66.5 169.5t-145 56.5t-140 -51.5t-63.5 -120t-13 -147z" />
<glyph unicode="&#xf1;" horiz-adv-x="1163" d="M166 0v1038h205v-104q107 117 271 117t265 -98t101 -289v-664h-209v633q0 153 -102 207q-47 24 -124 24t-137.5 -58.5t-60.5 -172.5v-633h-209zM236 1374q64 64 112 88.5t109 24.5t135 -44t127.5 -44t116.5 63l98 -96q-84 -84 -146 -104q-31 -9 -70 -9q-65 0 -140.5 43 t-115.5 43t-64.5 -11t-63.5 -50z" />
<glyph unicode="&#xf2;" horiz-adv-x="1100" d="M117 518.5q0 141.5 27 239.5q42 153 175 233q100 60 217 60q208 0 324 -123q70 -73 96.5 -169.5t26.5 -239.5t-26 -239t-97 -169q-118 -123 -310 -123t-310 123q-70 73 -96.5 169.5t-26.5 238zM256 1559h232l153 -332h-157zM326 520.5q0 -101.5 14 -171t66.5 -122.5 t144 -53t151.5 62q44 44 58 113.5t14 171t-14 171t-64.5 121t-145 51.5t-145.5 -51.5t-65 -121t-14 -171z" />
<glyph unicode="&#xf3;" horiz-adv-x="1100" d="M117 518.5q0 141.5 27 239.5q42 153 175 233q100 60 217 60q208 0 324 -123q70 -73 96.5 -169.5t26.5 -239.5t-26 -239t-97 -169q-118 -123 -310 -123t-310 123q-70 73 -96.5 169.5t-26.5 238zM326 520.5q0 -101.5 14 -171t66.5 -122.5t144 -53t151.5 62q44 44 58 113.5 t14 171t-14 171t-64.5 121t-145 51.5t-145.5 -51.5t-65 -121t-14 -171zM443 1227l153 332h232l-228 -332h-157z" />
<glyph unicode="&#xf4;" horiz-adv-x="1100" d="M117 518.5q0 141.5 27 239.5q42 153 175 233q100 60 217 60q208 0 324 -123q70 -73 96.5 -169.5t26.5 -239.5t-26 -239t-97 -169q-118 -123 -310 -123t-310 123q-70 73 -96.5 169.5t-26.5 238zM197 1227l264 329h176l264 -329h-174l-178 198l-178 -198h-174zM326 520.5 q0 -101.5 14 -171t66.5 -122.5t144 -53t151.5 62q44 44 58 113.5t14 171t-14 171t-64.5 121t-145 51.5t-145.5 -51.5t-65 -121t-14 -171z" />
<glyph unicode="&#xf5;" horiz-adv-x="1100" d="M117 518.5q0 141.5 27 239.5q42 153 175 233q100 60 217 60q208 0 324 -123q70 -73 96.5 -169.5t26.5 -239.5t-26 -239t-97 -169q-118 -123 -310 -123t-310 123q-70 73 -96.5 169.5t-26.5 238zM197 1374q64 64 112 88.5t109 24.5t135 -44t127.5 -44t116.5 63l98 -96 q-84 -84 -146 -104q-31 -9 -70 -9q-65 0 -140.5 43t-115.5 43t-64.5 -11t-63.5 -50zM326 520.5q0 -101.5 14 -171t66.5 -122.5t144 -53t151.5 62q44 44 58 113.5t14 171t-14 171t-64.5 121t-145 51.5t-145.5 -51.5t-65 -121t-14 -171z" />
<glyph unicode="&#xf6;" horiz-adv-x="1100" d="M117 518.5q0 141.5 27 239.5q42 153 175 233q100 60 217 60q208 0 324 -123q70 -73 96.5 -169.5t26.5 -239.5t-26 -239t-97 -169q-118 -123 -310 -123t-310 123q-70 73 -96.5 169.5t-26.5 238zM234 1237v221h188v-221h-188zM326 520.5q0 -101.5 14 -171t66.5 -122.5 t144 -53t151.5 62q44 44 58 113.5t14 171t-14 171t-64.5 121t-145 51.5t-145.5 -51.5t-65 -121t-14 -171zM676 1237v221h188v-221h-188z" />
<glyph unicode="&#xf7;" d="M98 471v195h893v-195h-893zM434 68v223h223v-223h-223zM434 848v223h223v-223h-223z" />
<glyph unicode="&#xf8;" horiz-adv-x="1100" d="M117 542q0 408 307 492q59 17 151.5 17t188.5 -52l76 129h141l-121 -200q70 -73 96.5 -169.5t26.5 -239.5t-26 -239t-97 -169q-118 -123 -311 -123q-119 0 -213 51l-76 -129h-141l119 203q-90 93 -111 241q-10 69 -10 188zM326 494.5q0 -127.5 30 -197.5l316 532 q-53 35 -134.5 35t-132.5 -51.5t-65 -121t-14 -197zM428 211q53 -37 133.5 -37t132.5 53t66 122.5t14 196.5t-31 197z" />
<glyph unicode="&#xf9;" horiz-adv-x="1163" d="M156 375v663h209v-632q0 -116 58 -174t151 -58t153.5 58.5t60.5 173.5v632h209v-1038h-204v104q-110 -116 -272 -116t-261 94q-104 102 -104 293zM296 1559h232l153 -332h-157z" />
<glyph unicode="&#xfa;" horiz-adv-x="1163" d="M156 375v663h209v-632q0 -116 58 -174t151 -58t153.5 58.5t60.5 173.5v632h209v-1038h-204v104q-110 -116 -272 -116t-261 94q-104 102 -104 293zM469 1227l153 332h232l-228 -332h-157z" />
<glyph unicode="&#xfb;" horiz-adv-x="1163" d="M156 375v663h209v-632q0 -116 58 -174t151 -58t153.5 58.5t60.5 173.5v632h209v-1038h-204v104q-110 -116 -272 -116t-261 94q-104 102 -104 293zM223 1227l264 329h176l264 -329h-174l-178 198l-178 -198h-174z" />
<glyph unicode="&#xfc;" horiz-adv-x="1163" d="M156 375v663h209v-632q0 -116 58 -174t151 -58t153.5 58.5t60.5 173.5v632h209v-1038h-204v104q-110 -116 -272 -116t-261 94q-104 102 -104 293zM260 1237v221h188v-221h-188zM702 1237v221h188v-221h-188z" />
<glyph unicode="&#xfd;" horiz-adv-x="958" d="M16 1038h222l247 -731l242 731h223l-458 -1245q-30 -81 -76 -129q-77 -76 -213 -76h-84v189h53q65 0 96.5 23.5t53.5 86.5l57 162zM373 1227l153 332h232l-228 -332h-157z" />
<glyph unicode="&#xfe;" horiz-adv-x="1135" d="M166 -420v1878h209v-524q99 117 272 117q247 0 327 -211q42 -114 42 -320q0 -207 -34.5 -299.5t-79.5 -138.5q-95 -94 -261.5 -94t-265.5 118v-526h-209zM375 520q0 -106 16 -180q36 -166 201 -166q128 0 171.5 91.5t43.5 226t-16 208.5q-35 164 -199 164 q-166 0 -201 -164q-16 -74 -16 -180z" />
<glyph unicode="&#xff;" horiz-adv-x="958" d="M16 1038h222l247 -731l242 731h223l-458 -1245q-30 -81 -76 -129q-77 -76 -213 -76h-84v189h53q65 0 96.5 23.5t53.5 86.5l57 162zM164 1237v221h188v-221h-188zM606 1237v221h188v-221h-188z" />
<glyph unicode="&#x152;" horiz-adv-x="2001" d="M137 729q0 174 7 268q15 202 135 322q151 151 362 151t324 -131v119h921v-196h-700v-431h596v-192h-596v-442h702v-197h-923v119q-57 -66 -139 -98.5t-182 -32.5q-214 0 -365 151q-120 120 -135 323q-7 93 -7 267zM360 780q0 -167 3.5 -236.5t13.5 -121.5t24 -81t45 -65 q85 -90 216.5 -90t216.5 90q36 39 54.5 89t25 136t6.5 266t-16.5 269t-62.5 138q-90 98 -224 98q-132 0 -216 -90q-53 -59 -69.5 -147t-16.5 -255z" />
<glyph unicode="&#x153;" horiz-adv-x="1765" d="M117 518.5q0 141.5 27 239.5q42 153 175 233q100 60 230 60q229 0 336 -166q111 166 327 166q135 0 236 -63t153 -176.5t52 -260.5v-92h-674q0 -183 119 -255q59 -36 145 -36t139 24t113 82l133 -124q-110 -112 -232 -144q-65 -18 -155 -18q-241 0 -358 164 q-50 -76 -137 -120t-197 -44q-191 0 -309 123q-70 73 -96.5 169.5t-26.5 238zM326 520.5q0 -101.5 14 -171t66.5 -122.5t144 -53t151.5 62q44 44 58 113.5t14 171t-14 171t-64.5 121t-145 51.5t-145.5 -51.5t-65 -121t-14 -171zM979 604h467q-3 87 -27.5 144t-78.5 93 t-127.5 36t-127 -36.5t-73.5 -82.5q-30 -72 -33 -154z" />
<glyph unicode="&#x178;" horiz-adv-x="1114" d="M10 1458h242l305 -641l305 641h242l-436 -858v-600h-222v600zM242 1610v221h188v-221h-188zM684 1610v221h188v-221h-188z" />
<glyph unicode="&#x2c6;" horiz-adv-x="1024" d="M160 1227l264 329h176l264 -329h-174l-178 198l-178 -198h-174z" />
<glyph unicode="&#x2dc;" horiz-adv-x="1024" d="M160 1374q64 64 112 88.5t109 24.5t135 -44t127.5 -44t116.5 63l98 -96q-84 -84 -146 -104q-31 -9 -70 -9q-65 0 -140.5 43t-115.5 43t-64.5 -11t-63.5 -50z" />
<glyph unicode="&#x2000;" horiz-adv-x="1024" />
<glyph unicode="&#x2001;" horiz-adv-x="2048" />
<glyph unicode="&#x2002;" horiz-adv-x="1024" />
<glyph unicode="&#x2003;" horiz-adv-x="2048" />
<glyph unicode="&#x2004;" horiz-adv-x="682" />
<glyph unicode="&#x2005;" horiz-adv-x="512" />
<glyph unicode="&#x2006;" horiz-adv-x="341" />
<glyph unicode="&#x2007;" horiz-adv-x="341" />
<glyph unicode="&#x2008;" horiz-adv-x="256" />
<glyph unicode="&#x2009;" horiz-adv-x="409" />
<glyph unicode="&#x200a;" horiz-adv-x="113" />
<glyph unicode="&#x2010;" horiz-adv-x="872" d="M137 471v195h598v-195h-598z" />
<glyph unicode="&#x2011;" horiz-adv-x="872" d="M137 471v195h598v-195h-598z" />
<glyph unicode="&#x2012;" horiz-adv-x="872" d="M137 471v195h598v-195h-598z" />
<glyph unicode="&#x2013;" d="M104 471v195h883v-195h-883z" />
<glyph unicode="&#x2014;" horiz-adv-x="1991" d="M137 473v199h1716v-199h-1716z" />
<glyph unicode="&#x2018;" horiz-adv-x="549" d="M160 1245v213l229 191v-404h-229z" />
<glyph unicode="&#x2019;" horiz-adv-x="549" d="M160 1057v401h229v-215z" />
<glyph unicode="&#x201a;" horiz-adv-x="547" d="M160 -188v403h229v-215z" />
<glyph unicode="&#x201c;" horiz-adv-x="940" d="M160 1245v213l229 191v-404h-229zM551 1245v213l229 191v-404h-229z" />
<glyph unicode="&#x201d;" horiz-adv-x="940" d="M160 1057v401h229v-215zM551 1057v401h229v-215z" />
<glyph unicode="&#x201e;" horiz-adv-x="942" d="M160 -188v403h229v-215zM551 -188v403h229v-215z" />
<glyph unicode="&#x2022;" horiz-adv-x="1049" d="M190 684q0 138 98 236t236 98q89 0 166.5 -44.5t122.5 -122t45 -167.5t-45 -167.5t-122.5 -122t-155 -44.5t-139 26.5t-107.5 72.5q-99 99 -99 235z" />
<glyph unicode="&#x2026;" horiz-adv-x="1645" d="M160 0v240h239v-240h-239zM702 0v240h240v-240h-240zM1245 0v240h240v-240h-240z" />
<glyph unicode="&#x202f;" horiz-adv-x="409" />
<glyph unicode="&#x2039;" horiz-adv-x="694" d="M76 557l471 469v-252l-219 -217l219 -219v-252z" />
<glyph unicode="&#x203a;" horiz-adv-x="694" d="M147 86v252l222 219l-222 217v252l474 -469z" />
<glyph unicode="&#x205f;" horiz-adv-x="512" />
<glyph unicode="&#x2122;" horiz-adv-x="1808" d="M84 1317v141h625v-141h-236v-733h-156v733h-233zM854 584v874h158l256 -497l258 497h157v-874h-157v571l-185 -367h-145l-184 367v-571h-158z" />
<glyph unicode="&#xe000;" horiz-adv-x="1040" d="M0 0v1040h1040v-1040h-1040z" />
<glyph unicode="&#xfb01;" horiz-adv-x="1194" d="M76 860v160h119v160q0 170 127 248q64 40 157 40h129v-178h-92q-113 0 -113 -121v-149h205v-160h-205v-860h-208v860h-119zM811 1278v186h223v-186h-223zM817 0v1020h209v-1020h-209z" />
<glyph unicode="&#xfb02;" horiz-adv-x="1282" d="M76 860v160h119v160q0 170 127 248q64 40 157 40h129v-178h-92q-113 0 -113 -121v-149h205v-160h-205v-860h-208v860h-119zM813 287v1171h209v-1159q0 -62 26 -91.5t87 -29.5h92v-178h-129q-142 0 -213.5 81.5t-71.5 205.5z" />
</font>
</defs>
</svg>
